<svg xmlns="http://www.w3.org/2000/svg" id="Camada_1" viewBox="0 0 24 24"><defs><style>.st2{fill:none;stroke-linecap:round;stroke-linejoin:round;stroke-width:2px;stroke:#fff}</style></defs><path stroke="#000" stroke-miterlimit="10" d="M.54.54h23.3v23.3H.54z" opacity=".8"/><path d="m12 14-1 1M13.75 18.25l-1.25 1.42M17.77 5.65A15.67 15.67 0 0 0 5.65 17.77M18.8 9.3a3.986 3.986 0 0 0-2.8 4.9 3.986 3.986 0 0 0 4.9 2.8" class="st2"/><path fill="none" stroke="#fffffd" stroke-linecap="round" stroke-linejoin="round" stroke-width="2" d="M21.96 20.73a.997.997 0 0 1-1.23 1.23l-18-5c-.53-.15-.84-.7-.7-1.23q0 0 0 0a19.67 19.67 0 0 1 13.7-13.69.997.997 0 0 1 1.23.69q0 0 0 0z"/></svg>